<svg width="36" height="36" viewBox="0 0 36 36" fill="none" xmlns="http://www.w3.org/2000/svg">
<g clip-path="url(#clip0_56_1099)">
<path d="M26.0575 11.9041C25.8919 11.4553 25.6277 11.0491 25.2843 10.7156C24.9509 10.3723 24.545 10.1081 24.0959 9.94247C23.7317 9.80103 23.1846 9.63266 22.1768 9.58679C21.0867 9.53708 20.7599 9.52637 18.0001 9.52637C15.2401 9.52637 14.9132 9.5368 13.8234 9.58652C12.8157 9.63266 12.2683 9.80103 11.9044 9.94247C11.4553 10.1081 11.0491 10.3723 10.7159 10.7156C10.3726 11.0491 10.1084 11.455 9.94247 11.9041C9.80103 12.2683 9.63266 12.8157 9.58679 13.8234C9.53708 14.9132 9.52637 15.2401 9.52637 18.0001C9.52637 20.7599 9.53708 21.0867 9.58679 22.1768C9.63266 23.1846 9.80103 23.7317 9.94247 24.0959C10.1084 24.545 10.3723 24.9509 10.7156 25.2843C11.0491 25.6277 11.455 25.8919 11.9041 26.0575C12.2683 26.1992 12.8157 26.3676 13.8234 26.4135C14.9132 26.4632 15.2398 26.4736 17.9998 26.4736C20.7602 26.4736 21.087 26.4632 22.1766 26.4135C23.1843 26.3676 23.7317 26.1992 24.0959 26.0575C24.9973 25.7098 25.7098 24.9973 26.0575 24.0959C26.1989 23.7317 26.3673 23.1846 26.4135 22.1768C26.4632 21.0867 26.4736 20.7599 26.4736 18.0001C26.4736 15.2401 26.4632 14.9132 26.4135 13.8234C26.3676 12.8157 26.1992 12.2683 26.0575 11.9041ZM18.0001 23.3073C15.0687 23.3073 12.6924 20.9313 12.6924 17.9998C12.6924 15.0684 15.0687 12.6924 18.0001 12.6924C20.9313 12.6924 23.3076 15.0684 23.3076 17.9998C23.3076 20.9313 20.9313 23.3073 18.0001 23.3073ZM23.5175 13.7229C22.8325 13.7229 22.2771 13.1675 22.2771 12.4825C22.2771 11.7975 22.8325 11.2422 23.5175 11.2422C24.2025 11.2422 24.7578 11.7975 24.7578 12.4825C24.7575 13.1675 24.2025 13.7229 23.5175 13.7229Z" fill="white"/>
<path d="M21.4453 18C21.4453 19.9028 19.9028 21.4453 18 21.4453C16.0972 21.4453 14.5547 19.9028 14.5547 18C14.5547 16.0972 16.0972 14.5547 18 14.5547C19.9028 14.5547 21.4453 16.0972 21.4453 18Z" fill="white"/>
<path d="M33.4037 0H2.59634C1.16235 0 0 1.16235 0 2.59634V33.4037C0 34.8376 1.16235 36 2.59634 36H33.4037C34.8376 36 36 34.8376 36 33.4037V2.59634C36 1.16235 34.8376 0 33.4037 0V0ZM28.2736 22.2613C28.2236 23.3616 28.0486 24.1128 27.7932 24.7703C27.2563 26.1587 26.1587 27.2563 24.7703 27.7932C24.1131 28.0486 23.3616 28.2233 22.2616 28.2736C21.1594 28.3239 20.8073 28.3359 18.0003 28.3359C15.193 28.3359 14.8412 28.3239 13.7387 28.2736C12.6387 28.2233 11.8872 28.0486 11.2299 27.7932C10.54 27.5337 9.91544 27.1269 9.39908 26.6009C8.87338 26.0848 8.46661 25.46 8.20706 24.7703C7.95163 24.1131 7.77667 23.3616 7.72668 22.2616C7.67587 21.1591 7.66406 20.807 7.66406 18C7.66406 15.193 7.67587 14.8409 7.72641 13.7387C7.7764 12.6384 7.95108 11.8872 8.20651 11.2297C8.46606 10.54 8.87311 9.91516 9.39908 9.39908C9.91516 8.87311 10.54 8.46634 11.2297 8.20679C11.8872 7.95135 12.6384 7.77667 13.7387 7.72641C14.8409 7.67615 15.193 7.66406 18 7.66406C20.807 7.66406 21.1591 7.67615 22.2613 7.72668C23.3616 7.77667 24.1128 7.95135 24.7703 8.20651C25.46 8.46606 26.0848 8.87311 26.6012 9.39908C27.1269 9.91544 27.5339 10.54 27.7932 11.2297C28.0489 11.8872 28.2236 12.6384 28.2739 13.7387C28.3241 14.8409 28.3359 15.193 28.3359 18C28.3359 20.807 28.3241 21.1591 28.2736 22.2613Z" fill="white"/>
</g>
<defs>
<clipPath id="clip0_56_1099">
<rect width="36" height="36" fill="white"/>
</clipPath>
</defs>
</svg>
